<?xml version="1.0" encoding="utf-8"?>
<!-- Generator: Adobe Illustrator 24.1.2, SVG Export Plug-In . SVG Version: 6.00 Build 0)  -->
<svg version="1.1" id="Слой_1" xmlns="http://www.w3.org/2000/svg" xmlns:xlink="http://www.w3.org/1999/xlink" x="0px" y="0px"
	 viewBox="0 0 634.6 590.2" style="enable-background:new 0 0 634.6 590.2;" xml:space="preserve">
<style type="text/css">
	.st0{fill:#494848;}
	.st1{fill:#FFFFFF;}
	.st2{fill:#BB2B70;}
	.st3{fill:#E83786;}
	.st4{fill:#202242;}
	.st5{font-family:'HelveticaNeue-Bold';}
	.st6{font-size:94.7043px;}
	.st7{font-family:'HelveticaNeue-Thin';}
	.st8{font-size:48.9006px;}
	.st9{fill:none;}
</style>
<path class="st0" d="M300.3,91.7c-3.3,5.3-6,10.8-8.1,16.6l0,0l9.6-1.7c2.2-7.4,5.4-14.5,9.4-21.2c-2.4,0.2-4.9,0.3-7.5,0.6l0,0
	L300.3,91.7z"/>
<path class="st1" d="M384,73.7"/>
<path class="st0" d="M596.2,196.4l-31-14.3c-0.3-2.6-0.8-5.1-1.4-7.6c-4.9-20.6-19.1-34.7-30.1-43c-9.6-7.2-24.7-4-30.4,6.8
	l-6.2,11.9l-11.2-5.3c6.3-50.3-29.2-96.4-79.6-102.9c-35.9-4.6-71.2,12.4-90.1,43.3c-2.4,0.2-4.9,0.3-7.5,0.6
	c-4.1,0.4-8.3,1-12.8,1.8l-41.9,7.4c-10.7,1.8-14.8,11.2-20.3,19c-6.1,8.8-13.2,16.9-21.1,24.1c-10,9.2-21.2,17-33.1,23.4
	c-7.9,4.2-12.1,13.1-10.4,21.9c0.7,3.5,1.6,7,2.7,10.4c0.3,0.9,0.6,1.8,1,2.8c-0.5-1.4-14.2,2.5-15.7,3c-5.4,1.9-11,4.8-15,8.9
	c-7.9,8.1-6.5,20.9-5.9,31.3c0,0.3,0,0.7,0.1,1c0,0.1,0,0.2,0,0.3c-4.2,1.8-8.1,4.3-11.3,7.6c-3.3,3.4-5.4,7.8-5.7,12.5
	c0,0.1,0,0.1,0,0.2c-0.5,6.4-0.6,12.9-0.3,19.4c0,0.1,0,0.3,0,0.4c1,17.3,5.2,34.9,12.5,52.8c-17.9,6.5-28.2,14-28.2,22
	c0,24.7,97.6,44.6,217.9,44.6s217.7-20,217.7-44.6c0-8-10.3-15.5-28.2-22l0,0c6.6-15.6,10.7-32.1,12.3-49c0,0,0,0,0-0.1
	c1.6-12.4-0.9-22.4,0.1-22.8c5.2-2.6,10-5.8,14.5-9.4c7.3-6,13.3-13.2,17.8-21.5l19.8,9.1c8.7,4.1,19,0.3,23.2-8.4l6.1-12.9
	C608.6,210.8,604.8,200.5,596.2,196.4z M321.1,311.6c-11.9,0-23.5,0.2-34.9,0.6c1-4.3,2.1-8.6,3.5-12.8c0,0,18.1,0.9,31.4-12.5
	c13.3,13.3,31.4,12.5,31.4,12.5c1.4,4.2,2.6,8.5,3.5,12.8C344.6,311.9,333,311.6,321.1,311.6L321.1,311.6z"/>
<path class="st2" d="M211.5,240.1c-2.3,0.9-4.1,1.6-4.9,2.6c-1.1-0.3-2.2-0.7-3.4-0.9c-11.6-1.8-22.8-5.5-33.1-10.9
	c-2.7-1.4-5.7-2.2-8.8-2.3c-1,0-2.1-0.1-3.2-0.1c-1.6,0-3.2,0-4.8,0.1c0-0.8,0-1.6-0.1-2.2c0-3,0-6.1,0.2-9.2c0-0.9,0.1-1.8,0.2-2.7
	c1.6-1.6,7.6-6.2,23.1-5.9c0.3,0,0.7,0,1,0h1.9C187.9,221.3,198.7,232,211.5,240.1z"/>
<path class="st3" d="M236.5,294.3c0-0.2,0.1-0.3,0.1-0.4c0.5-2,5.2-17.6,29.9-26.1c-11.1-1.8-21.9-4.8-32.3-9
	c-2.4,0.8-4.9,1.6-7.4,2.3c-4.2,1.3-7.3,5-7.8,9.4c-1.1,10.3-1.7,20.6-1.7,31c-0.1,15.8,7.6,39.6,22.2,61.8
	C235.4,342.6,232.3,316.2,236.5,294.3z"/>
<path class="st2" d="M503.1,271.1c0.3,17.8-3.5,35.5-9.9,52c-0.5,1.3-1,2.6-1.6,3.9c-4.2,10.1-9.3,20-15.2,29.2
	c6.7-36.9,2.7-64.1,2.4-65.7c-0.7-4.4-4.8-7.4-9.2-6.7c-0.5,0.1-1,0.3-1.6,0.4c-0.2,0.1-14.1,5.2-27.4,8.7
	c-0.2-5.6-0.4-10.8-0.9-15.3c8.6,0,17.1-1.3,25.3-3.9l10.7-4.1c2.2-1,4.6-2.1,6.9-3.3c4.1,0.3,8.1,0.3,12.2-0.1
	c2.7-0.3,5.3-0.8,7.9-1.4l0.1,2.1C503,268.4,503,269.7,503.1,271.1z"/>
<path class="st3" d="M424.8,301.5c0-9.9-0.5-18.6-1.2-25.5c-7.4-1.5-14.6-3.7-21.5-6.5l-12.3-4.8c-4.6,1.2-9.3,2.2-14.2,3
	c24.8,8.5,29.5,24.1,30,26.1c0,0.2,0.1,0.3,0.1,0.4c4.2,21.9,1,48.3-3.1,68.9C417.2,341.1,424.9,317.3,424.8,301.5z"/>
<path class="st2" d="M160.2,282c0.7-4.4,4.8-7.4,9.2-6.7c0.5,0.1,1,0.3,1.6,0.4c0.2,0.1,14.1,5.2,27.4,8.7
	c0.3-8.9,0.9-16.5,1.5-22.5c-13.8-2.2-27-6.6-39.4-13c-16-0.6-22.3,4.1-24.1,6c-3,36.5,11.9,69.8,26.3,92.7
	C155.9,310.7,160,283.5,160.2,282z"/>
<path class="st3" d="M543.9,179.3c-3.6-15.1-14.9-25.7-22.5-31.4l-10,19L487,213.3l-3.4,6.5l0.8-21.4l-0.3,7l0,0l0,0l0.3-7l-1-0.5
	l-16.6-7.8c-2.8,3.5-5.9,6.8-9.2,9.9c-0.1,2.8,0.2,6.5,0.7,9.2l-0.1-1c1.1,6.1,3.9,12.9,9.3,20.2c1.4,1.8,1.9,4.2,1.4,6.4
	c-0.4,2.2-1.8,4.2-3.8,5.4c-16.9,10.1-33,14.4-48.4,14.5c-1.1,0.6-2.2,1.1-3.5,1.7c22.6,7.9,40.2,6.7,62-4.4
	c1.7-1.6,4.2-2.2,6.5-1.9c12.7,1.8,23.4-1.9,31.5-6.7c6.6-3.9,12.4-9.1,17.1-15.1c6.2-8.7,10.4-17.1,12.7-25.2
	C545.4,195.3,545.7,187.1,543.9,179.3z M458.2,208.2L458.2,208.2L458.2,208.2L458.2,208.2z"/>
<path class="st0" d="M406.3,237.1c18.3-3.6,35-12.5,48.4-25.4c1.2-1.1,2.3-2.3,3.5-3.5c-0.5-2.7-0.7-5.4-0.6-8.1
	c-6.7,6.2-14.1,11.4-22.3,15.5C427.2,224.7,417.4,232,406.3,237.1z"/>
<path class="st0" d="M483.4,197.9L483.4,197.9l-9.6-4.6c0,0,6.1-19.6,8.7-32.8c-3.3,10.7-8.6,20.8-15.6,29.6L483.4,197.9z"/>
<path class="st4" d="M263.3,164.7c0-0.5,0-1,0.1-1.6h-0.1c-10.3,0-18.7,8.4-18.7,18.7s8.4,18.7,18.7,18.7c10.3,0,18.7-8.4,18.7-18.7
	l0,0c0-1-0.1-2.1-0.3-3.1c-7.7,2.2-15.7-2.3-17.9-10.1C263.5,167.3,263.3,166,263.3,164.7z"/>
<g>
	<path class="st3" d="M366,248.8l-1-0.1C365.4,248.8,365.7,248.9,366,248.8z"/>
	<path class="st3" d="M428.5,218.5L428.5,218.5L428.5,218.5c-12.6,5-26.2,7.2-39.8,6.2l0,0c-2.7-0.2-5.4-0.4-8-0.9
		c-41.9-6.5-73.9-40.8-77.5-83c-0.2-0.4-0.3-0.9-0.4-1.4c0.2,0.4,0.3,1,0.5,1.4c-0.6-7.3-0.3-14.6,0.8-21.8
		c0.7-4.2,1.6-8.4,2.9-12.5l-9.1,1.6h-0.8l-39.7,7.1c-12.2,19.5-30.9,44.2-68.3,64.4c2.9,15.2,17.6,60.2,88.8,68.9
		c17.6,1.9,31.5,3.5,38.7,4.3c1.2,0.2,2.4,0.4,3.6,0.6c0.3,0.1,0.6,0.1,0.9,0.1l0.9-0.1c1.1-0.2,2.2-0.3,3.4-0.6
		c7.1-0.9,21-2.4,38.8-4.3c0.1,0,0.1,0,0.2,0c2.2-0.3,4.6-0.7,6.8-1c-2.1,0.4-4.2,0.8-6.2,1.1c-0.3,0-0.4-0.1-0.6-0.1h-0.1l0.7,0.1
		c-0.3,0-0.4,0.1-0.7,0.1c0.3,0,0.5-0.1,0.7-0.1h0.1h-0.1c3.2-0.4,6.4-0.9,9.6-1.6c3.6-0.7,7.2-1.5,10.7-2.4
		c6.7-1.7,13.4-4.1,19.7-7c0.4-0.3,0.8-0.4,1.1-0.6c0.1,0,0.1,0,0.2,0h0.1c11.1-5.1,20.9-12.5,29-21.6
		C433,216.6,430.8,217.6,428.5,218.5z M247.5,203.8c-0.1-0.1-0.2-0.1-0.3-0.3c1.1,0.8,2.3,1.5,3.6,2
		C249.7,205.1,248.6,204.5,247.5,203.8z M253.7,165.8c-0.1,0.8-0.1,1.6-0.1,2.4c0,12.6,9.8,22.9,21.8,22.9c1.5,0,2.9-0.2,4.3-0.5
		c-3.1,5.9-9.3,9.9-16.5,9.9c-10.3,0-18.7-8.4-18.7-18.7C244.6,175,248.3,169.1,253.7,165.8z M401.5,237.9c1.4-0.2,2.8-0.4,4.1-0.7
		C404.2,237.6,402.9,237.7,401.5,237.9z M406.7,235c-2.1,1.1-4.2,2.2-6.2,3.1h-0.1C402.7,237.1,404.8,236,406.7,235
		c0,0,0.1-0.1,0.2-0.1C406.8,234.9,406.8,235,406.7,235z M419.1,226.9c-0.1,0-0.1,0.1-0.2,0.1C418.9,227,419,226.9,419.1,226.9
		c0-0.1,0.2-0.2,0.3-0.2C419.3,226.7,419.2,226.8,419.1,226.9z"/>
</g>
<path class="st0" d="M238.8,175.5c-0.1,1-0.2,1.9-0.2,2.8c0,14.4,11,26,24.7,26c2.2,0,4.4-0.3,6.5-1c7.2-2.2,13-7.4,15.9-14.4
	c1.5-3.4,2.2-7,2.2-10.6c0-14.4-11-26-24.7-26c-3.5,0-6.9,0.8-10.1,2.2C245.1,158.7,239.6,166.5,238.8,175.5z"/>
<g>
	<path class="st1" d="M448.8,158.8C448.8,158.8,448.8,158.8,448.8,158.8C448.8,158.8,448.8,158.8,448.8,158.8z"/>
	<path class="st1" d="M452,115.6c-8.3-27.2-34.7-44.7-63-41.9c-8,0.8-15.9,3.2-23,7.1l0.3-0.2c-29,15.7-39.7,52-24,81
		c15.7,29,52,39.7,81,24c11.3-6.1,20.2-15.7,25.6-27.2c-0.1,0.2-0.1,0.3-0.2,0.4C455.2,145.3,456.4,130,452,115.6z M448.8,158.5
		c0.1-0.3,0.3-0.8,0.5-1.4c-0.1,0.3-0.1,0.5-0.2,0.7C449,158,448.9,158.2,448.8,158.5z"/>
</g>
<ellipse class="st0" cx="394.8" cy="133.2" rx="34.7" ry="34"/>
<text transform="matrix(1 0 0 1 124.8831 481.0975)" class="st0 st5 st6">TRACER</text>
<text transform="matrix(1 0 0 1 72.9271 536.3553)" class="st0 st7 st8">Exploring Network Paths</text>
<rect x="0" y="-0.2" class="st9" width="634.6" height="590.7"/>
</svg>
